<svg width="36" height="22" viewBox="0 0 36 22" fill="none" xmlns="http://www.w3.org/2000/svg">
<mask id="mask0_129_3428" style="mask-type:alpha" maskUnits="userSpaceOnUse" x="0" y="0" width="36" height="22">
<rect width="36" height="22" rx="3" fill="#C4C4C4"/>
</mask>
<g mask="url(#mask0_129_3428)">
<path d="M36.7312 23.3711H-5.7998V0.527176H36.7312V23.3711Z" fill="white"/>
<path d="M36.7305 23.3711H-5.21484V11.8802H36.7305V23.3711Z" fill="#00008B"/>
<path d="M36.7305 11.8799H-5.21484V0.526895H36.7305V11.8799Z" fill="#00008B"/>
<path d="M36.3343 -1.83333L-9 23.206L-7.0305 27.5L38.3038 2.46065L36.3343 -1.83333Z" fill="white"/>
<path d="M36.7034 -1.02905L-8.63086 24.0103L-8.05559 25.2642L37.2787 0.224814L36.7034 -1.02905Z" fill="#EB2C33"/>
<path d="M-7.0305 27.5L38.3038 2.46065L36.3343 -1.83333L-9 23.206L-7.0305 27.5Z" fill="white"/>
<path d="M-7.39934 26.6953L37.935 1.65597L37.3597 0.402877L-7.97461 25.4414L-7.39934 26.6953Z" fill="#EB2C33"/>
<path d="M36.3343 -1.83333L-9 23.206L-7.0305 27.5L38.3038 2.46065L36.3343 -1.83333Z" fill="white"/>
<path d="M36.7034 -1.02905L-8.63086 24.0103L-8.05559 25.2642L37.2787 0.224814L36.7034 -1.02905Z" fill="#EB2C33"/>
<path d="M-7.0305 27.5L38.3038 2.46065L36.3343 -1.83333L-9 23.206L-7.0305 27.5Z" fill="white"/>
<path d="M-7.39934 26.6953L37.935 1.65597L37.3597 0.402877L-7.97461 25.4414L-7.39934 26.6953Z" fill="#EB2C33"/>
<path d="M36.3343 -1.83333L-9 23.206L-7.0305 27.5L38.3038 2.46065L36.3343 -1.83333Z" fill="white"/>
<path d="M36.7034 -1.02905L-8.63086 24.0103L-8.05559 25.2642L37.2787 0.224814L36.7034 -1.02905Z" fill="#EB2C33"/>
<path d="M39.6878 27.5L-5.64648 2.46065L-3.67611 -1.83333L41.6582 23.206L39.6878 27.5Z" fill="white"/>
<path d="M40.0571 26.6953L-5.27637 1.65597L-4.70196 0.402877L40.6323 25.4414L40.0571 26.6953Z" fill="#EB2C33"/>
<path d="M-3.67611 -1.83333L41.6582 23.206L39.6878 27.5L-5.64648 2.46065L-3.67611 -1.83333Z" fill="white"/>
<path d="M-4.04484 -1.02905L41.2886 24.0103L40.7142 25.2642L-4.62012 0.224814L-4.04484 -1.02905Z" fill="#EB2C33"/>
<path d="M36.985 15.1614H-4.62695V8.80758H36.985V15.1614Z" fill="white"/>
<path d="M19.6205 23.4412H12.6885V0.526724H19.6205V23.4412Z" fill="white"/>
<path d="M18.3143 23.4412H13.9941V0.526724H18.3143V23.4412Z" fill="#EB2C33"/>
<path d="M36.985 13.9639H-4.62695V10.0047H36.985V13.9639Z" fill="#EB2C33"/>
</g>
</svg>
